<svg xmlns="http://www.w3.org/2000/svg" width="128" height="128" viewBox="0 0 128 128" role="img" aria-labelledby="title desc">
    <title id="title">Catalog section placeholder</title>
    <desc id="desc">Decorative placeholder for a catalog menu item.</desc>
    <defs>
        <linearGradient id="catalogBg" x1="16" y1="12" x2="112" y2="116" gradientUnits="userSpaceOnUse">
            <stop offset="0" stop-color="#eef6ff"/>
            <stop offset="0.55" stop-color="#f8fbfd"/>
            <stop offset="1" stop-color="#e8fff7"/>
        </linearGradient>
        <linearGradient id="folderGradient" x1="34" y1="33" x2="94" y2="92" gradientUnits="userSpaceOnUse">
            <stop offset="0" stop-color="#0d6efd"/>
            <stop offset="0.52" stop-color="#0aa2c0"/>
            <stop offset="1" stop-color="#20c997"/>
        </linearGradient>
        <linearGradient id="lineGradient" x1="44" y1="84" x2="85" y2="84" gradientUnits="userSpaceOnUse">
            <stop offset="0" stop-color="#0d6efd"/>
            <stop offset="1" stop-color="#20c997"/>
        </linearGradient>
        <filter id="folderShadow" x="-24%" y="-24%" width="148%" height="158%" color-interpolation-filters="sRGB">
            <feDropShadow dx="0" dy="7" stdDeviation="7" flood-color="#172b4d" flood-opacity="0.14"/>
        </filter>
    </defs>

    <rect x="4" y="4" width="120" height="120" rx="26" fill="url(#catalogBg)"/>
    <circle cx="26" cy="29" r="5" fill="#0d6efd" opacity="0.55"/>
    <circle cx="103" cy="30" r="5" fill="#20c997" opacity="0.72"/>
    <circle cx="102" cy="103" r="4" fill="#0aa2c0" opacity="0.6"/>

    <g filter="url(#folderShadow)">
        <path d="M36 36h23l8 10h26a9 9 0 0 1 9 9v31a10 10 0 0 1-10 10H36a10 10 0 0 1-10-10V46a10 10 0 0 1 10-10Z" fill="#ffffff"/>
        <path d="M36 36h23l8 10h30a5 5 0 0 1 5 5v8H26V46a10 10 0 0 1 10-10Z" fill="url(#folderGradient)"/>
        <path d="M31 57h67a7 7 0 0 1 6.8 8.7l-6.1 24.7A8 8 0 0 1 91 96H36a10 10 0 0 1-9.7-12.4l5.1-20.2A8 8 0 0 1 39.2 57H31Z" fill="#f8fafc"/>
        <rect x="44" y="70" width="39" height="7" rx="3.5" fill="#dbeafe"/>
        <rect x="44" y="83" width="42" height="5" rx="2.5" fill="url(#lineGradient)" opacity="0.9"/>

        <g transform="translate(70 59)">
            <path d="M8 16h8M22 16h8" fill="none" stroke="#0d6efd" stroke-width="5" stroke-linecap="round"/>
            <circle cx="8" cy="16" r="6" fill="#0d6efd"/>
            <circle cx="30" cy="16" r="6" fill="#20c997"/>
            <circle cx="19" cy="16" r="4.2" fill="#0aa2c0"/>
        </g>
    </g>
</svg>
