<svg xmlns="http://www.w3.org/2000/svg" width="128" height="128" viewBox="0 0 128 128" role="img" aria-labelledby="title desc">
    <title id="title">My Links Manager icon</title>
    <desc id="desc">Catalog folder with connected link nodes.</desc>
    <defs>
        <linearGradient id="iconGradient" x1="16" y1="12" x2="112" y2="116" gradientUnits="userSpaceOnUse">
            <stop offset="0" stop-color="#0d6efd"/>
            <stop offset="0.55" stop-color="#0aa2c0"/>
            <stop offset="1" stop-color="#20c997"/>
        </linearGradient>
        <filter id="iconShadow" x="-20%" y="-20%" width="140%" height="150%" color-interpolation-filters="sRGB">
            <feDropShadow dx="0" dy="8" stdDeviation="8" flood-color="#0d2238" flood-opacity="0.18"/>
        </filter>
    </defs>

    <rect x="12" y="12" width="104" height="104" rx="26" fill="url(#iconGradient)" filter="url(#iconShadow)"/>
    <path d="M42 37h19l8 10h25a10 10 0 0 1 10 10v32a10 10 0 0 1-10 10H34a10 10 0 0 1-10-10V47a10 10 0 0 1 10-10h8Z" fill="#ffffff" opacity="0.97"/>
    <path d="M34 51h60a5 5 0 0 1 5 5v7H29v-7a5 5 0 0 1 5-5Z" fill="#d7f6ef"/>
    <path d="M46 78h16M69 78h14" fill="none" stroke="#0d6efd" stroke-width="9" stroke-linecap="round"/>
    <circle cx="46" cy="78" r="10" fill="#0d6efd"/>
    <circle cx="82" cy="78" r="10" fill="#20c997"/>
    <circle cx="64" cy="78" r="7" fill="#0aa2c0"/>
    <circle cx="46" cy="78" r="3" fill="#ffffff" opacity="0.92"/>
    <circle cx="82" cy="78" r="3" fill="#ffffff" opacity="0.92"/>
</svg>
